<mxfile host="65bd71144e">
    <diagram id="svEley98fLO1k_cxsXw6" name="第 1 页">
        <mxGraphModel dx="4280.91" dy="650.1" grid="0" gridSize="10" guides="0" tooltips="1" connect="1" arrows="1" fold="1" page="1" pageScale="1" pageWidth="1600" pageHeight="700" math="0" shadow="0">
            <root>
                <mxCell id="0"/>
                <mxCell id="1" parent="0"/>
                <object label="" id="34">
                    <mxCell style="shape=stencil(lVrZchw3DPyafWUNT5DPjvMfrrIcqaJYLlm5/j7N2nC0bO702G860EsSBBoNcC/xw/fHT98eLmH7/vb68vvD30+f3x4v8ZdLCE9fHx9en97w0yV+vMQPX15eH357ffnz6+fr798+dcv+0x8vf/VP+OeKi5uzraPC9u/1L5vbrn/49Wr//PR1tvee7GM6tg/V1TTZe+eVvbnC9rUK++JaneyDi0XYZ5fm80aXg7DHv+fzJtdM2HuX5/0Ul9uxvW+uxMm+uij87+Efm/2zSYf67Mq8IR+cFx71ODGtkFwSR/beldlFvoxN3gcgxGiFKgHV2WyPoPt/ybv25vIcQwiKLI5cXJoPgEtW9nmE2G5f5H7gvzDb13Ep95PMlfnzkXUli6BzjWI6OFNJ48J83oigFp+/XHA0t6kQcp7202TIgYPmHEjeBbGfzaX5flM8sQ+z/1N2XpAE4nP2f8J5o7Sfz5t21juyn8+bNxlvsG+zPUhO7ofOm5Pb5H4o/nOW8blxfGaTpLWN6Nrt60m8xdk/Bf4R5/XO5ngoYVSpg/j3xNF7xh3YE4UWxI/Yf2T/F/CDKqrO5vstddz4AZ9Esm+jSh3w1TbvxzZXBd8uJcPgMbGfMiTAbh9dEv4x5n9Lo+of2JN/LLsqzlu5BluRRbuxJrA6dnhUwOIc0NZ01V5UQQXnCdmBGl3nlKw6pFGjA+kI1HER010XzGeoaUipI+VBrF5x78pLuAZaAeJFhFHnuTmOquaJLrbmwG74CAUIw+s3gKoyPzJ1NS9TuefaHKstyNqE5AmZAVWQHbIhESC6qKp9XQ4dh2C4D2isqVsaFeI+f/lBhzcAtQL0CVWcluUZYmTZC4BcARuY86GVkbT3AWVIghtAVSsYq8Bm8qYj8mFjgJK9UE2FAHUok/t1AaTiGZAEzUBnWWWACSZOiE2KpSb7RSizGhkQ1JbSKE03AHkGBIJngFJTqSw53Ybf7gMq6zsAVP1JjYmsA1TB3YaevgGo8M5rxgEgLg6KMSwXp2pihojhRlOPBiAyo/85ROY6eoooTH6nCBvS8YcRlVvyUwRcWX7GucWzq04CBIK2LACVqCVxD9OzQrATJG1aQjCKvIOmXTNbsRNELYegJpvSWEAAEIWAgKzNjQGqcTO/MKxJKoAQpvEUAKpwWVwkikltb2kpjboOQQuHxoCktlS4/W9FtsNmQ/3fFF+5Jdz0xgBVfLt8plhKcgXI51wYoNxaPfcQEEFBeAnymRk2aMA+JbuRikoP1MxjrbbJsQrkM9Uh6OOqDl2dn1c4UeC1cWcMja8677aMSnCqpAGVVkiyi4ATaQCLm5ErBJ5Qo3VK4tAAcCcEWhDM15bQ6N2cuOm2DPQQ8GqqjWD2cz4gpWQHm5jITlpYJCQpjp7lyq35TlOtWAOksi1d+wmA2NuS3tLSkYJtVQUCgEbbKABNAeDEOZb65ERtqfKoF0XMBJEBUOczoExmdXFIUVrBZHPWlulG2QvAEaDQCll21V2KLPO0qhKosWSHvlHDinc5tQP8kKcHE5plJptPUm5ZAjowqZvbBfcOQKHWbqKnMOjfoIKpceMOUa4ek7rEo0Gxl11Bj41lEq1EX2/eZi+hOVKCqWvCmSuTyVliTwh6DMhnGUTEhBZSFeq2v7DtgDCGBT/IAuibZY4a8z0686i8ZMPrA4DeX0kBcCUFXzTX1MUVFkyxONNsTDwTs87RZaAYky7UmQt1jHKKiiJHUiCGIXCO6m6lLflxlUdSgKZGoWkp4HmWEKB9lZcW/dNfsNUsu/HjRtCPM3UZu76/Px7JykBbijJFIfGo3Q1B9sdd4tEKm37wXV40+zu58pLnBOrTZ/Wk0JZncZOv3JBHVB98kXW3yyNaIUulC7XD0xAtjdGM8jAkjpfRo/7YCBBkPwDxQsznvXwkgBbhGZCXOQ1pQcLV65cRSIvG0xlJApAWgVpFfeaN5Q9qnpqsLT6qUvxkYz0GnSEYAyKBRq5VfuEjJ27vTcqSHJbWQYoMKATKfpPfuEmN5xMm7yvZ0gbIx2vIAyL5IjUP1MHG9so/aZmcFtnsodRzCyDjLdZFPcuS0797QeJZ3hfKdlzs1ecjweh1Wcbn+TfI8MP718++PD0/X7+9dvt//roa/nT9qlv8+B8=);fillColor=#fa6800;direction=north;fontColor=#000000;strokeColor=#C73500;fontFamily=Times New Roman;fontStyle=4" vertex="1" parent="1">
                        <mxGeometry x="-1456.641727147006" y="368.18799489702525" width="193.5" height="198.0625" as="geometry"/>
                    </mxCell>
                </object>
                <mxCell id="2" value="" style="whiteSpace=wrap;html=1;" parent="1" vertex="1">
                    <mxGeometry x="-41" y="512" width="120" height="58" as="geometry"/>
                </mxCell>
                <mxCell id="3" value="" style="shape=stencil(lZbdbtswDIWfxrcHIqnf67R7jwBNF2NpEqTZ1r79aBjKIiUm4DvZ4meR1CHNQTaf++15N7D7vF5Ov3Z/x7frfpCXgXk87neX8aqrQV4H2byfLrufl9Pv49v8fN5OltPq4/Rn+sLXzJFzcG7C2H0/vPoxI4fxeIeUghTWERk+rSMioqwjAqSsIwRE6wiHae+O0FyEtAxkDeMBIG8AjJRbICPRMpBydeAO4GwAgtLmqSR444RY4Nqr0FTHYgCC3LmkmTbSGjSGVlBZgzZOCALpAA8XlgGfIb4BNG+ODUDAbdCJQAYgGkNbRpoGKwbxoNgAIdYqeQ64qpwKeFtLHHtpeEY0TmBBaKUhqUb1HHDI7T2I6jcuA6RZakuOM7KhVnqIgQO8GICvDtwANuVNjNJ1swJvBE0EaWtanczGCaXu3uxtZeSHRkZgqwX0QipmLUS49vMJYiQ01NK96bq2g+eFA+5EimRoVPrrFXjDd72rtjtyVeyCuS+dORnqZLg2kYRklDwh9uZsOHPbreZaPIYzDoU7c0v3DkE6c+tPpj+ysMq8mxF6c138nzDex8NhHlDu9/uJRF/N04y8/gM=);fillColor=none;" vertex="1" parent="1">
                    <mxGeometry x="-8252.75" y="223.5" width="203.25" height="14.5" as="geometry"/>
                </mxCell>
                <mxCell id="6" value="" style="shape=stencil(lZzJkt3GEUW/preImoe1LP+HIkSZDNOigqKnv3eWO4B+uIl30L1rPtYFasjxZhZe8k9/fv7lj08vKfz54/u3v3/695dff3x+yX95SenL758/ff/yw/56yT+/5J9++/b909++f/vn77++/vuPX9bI9dc/vv1rPeE/r7ixlbBAKfz39Ydct5T//8tfX8d//fI7jm9biB8Z37ccPjJ+bDXR+NzP4+cWcT45nsaXsP/yZHxq5/Fxa7g/cZzH5y0UGh/k+WWrMJ++zXwe37YI+9O3Ps/j7ReYT99aOo+feF59K+fn17C/8cn4fN6fmraI80nn8615y5XGy/7XskvIs/Hn/awm/7jeGHR8B3noW5D523nhfPx4kn8/n7YNlB9dr71xfGQ/7URwvJ6XSUj7iDz0reL+1KLjG8qbyL+Np/0x/a06fsL8h+pLHfsOX46fW6o6nuQzBicQ9kqYUIxbkBVPtNAx7Qr+ACigYjFvPSpgEqDqG1pAIxedFrS4y/k1YGzTAcjMpbDP+ADYNoAcpbTNs6C2vE/yGlB3vXoAdAL03fAcAHMFsOglS+eTbma7YNE57qbzATBhSjnve3IA2n7214Cq7riZ+tOUupvSQPto7j0NBUyYkvlr0eg2twZTKnbS50X3sBupa0DZxtkm9Yg21Vx2ywogp1nMRpyjhJ52v3sJMCcsbqFn3NZqExgKGATIu404AGU3zdeAusdlB8CkFTybObKeFTDoDbZLAmhbgXNYZutsvHtHM2NGRaKdzt5n2QhZ9MBwylRe3zC2Af5kabCsYaIha12NsQEGAczfnE96BH6DbWtRAK3BpF+CjBH3MOIakNQuGYDskglzlTckDpvL1oMCKq2h7mHFA4DsksnmkCnl3Z5fAywQCQpoFAqP/VwPQNkCxbYmCFUBFGzbufamALKtdkytKIB2aSTVh1HRkNme5KQA8kA2AfEPBmj0huLEu/IaqsZLo2HOY/9dmgLwHFzoYIDKABWNth/lNWDsz3sATMqDp9tWTjQM0IYCiImY4eINtEsGqFMBlJsYQKJKA9C2zqi21QCkDwZQu9QxnTTASAoYYMhm2oLbJXLsBkhu0XTS06to3yOoZwA96bEFXsPoDkDnkJVVMQCxQgZIbkqkogaowQFoW7NzKIPFOzsVHegfZtGEwwCZ1lDcSY+t0JQsOHEA1Ieyp6oPANSH4jzQYH2oTrwH5vfzSJEeABOcogFKdgA6h6qUgJk2snwGEI5iGU+SparJqwEolJ4HR/gAINbTAKoPcydmnwGKmxJlKAZoUQGVdqlphrI8Bu1Sc3567o+4BvRd5R8AKBpdEw7zGGjIulqN5cRIH7oqkAESaZwZd/cG4pfmQW89ANAIDE0tF4C8qJmt+ME3SAh3t2hXNLg7uOFc1rx7Q3WWD22rT5oa8ohzaLY7Krus4SKBhGTOHC5/CJjSLIBwAp3NzFS3a3kXhg4uSOyBzf10HFnffdJTgNBFZedSngHy2QispJ9EY2ouWgcy2HOqqVwlBH5DEY48sxedamZqxBxoAaSqNDE9XgApWzUkES4ABQnaC0DCwtsFILBDcYBVavwY4HBi7wVwenwBSB/cpRy2weItgHRo+XsBnQscHlA51vCAzA7FA+IHtzUeTMd7AWOvqjwFnI1AbLsTewaQ8CeWPWx8CjjbpZjuDq6dXVaMd5ZPMpSJdOsaLy7u7tiEITNBuhl/PoTGwdXUhKnejRfmtHAs5mhNE1OWa2EPEmbqMYSdnXsDEJ9xAYj7FN8PIMW5BFAp5BIQP7aGgGvwuxqQuLoaf6NncsoBi3BeirhY5KU0cFbvtCDs4fQ7tSzgASwt1vnfeP6m+3NjGSV4CXuQ+M6AzcbfBKn1Y+OrygNx4nMowXAzvms4eDO+aeh1M75q6nKz/0UbDsLe0fSMa+v6/Erj427EH/SX2HNXtI74/EUCi7NHxzocIZR5fFJyvmAQaDmT8EcNqUhLmSQy6BjsryrqWT4nuvkeXeSRuMLoOlxiRYvSjkD9IRgi5rId1b6H+AxryV2rpOa6sZaclLSwXSJAGWrlcuaugXKRHFDCX1zFvWSkFHLVcKscvYPXgOhapTKK3uqVcr1eFKGtgEaS5cRtN1NFozWMiSwq1vI2E2AxO0BGXjEGLS70hr1Gjjt6K5teS7fa0xHRABdHH3NdODsWv6C2RSVpzAKSgQ/a3TK4ITFo68lNpTC4+XcMw13891bMfPd4Criu5sPz1/MdN/vpayLEPQZVmUVjk0CrP5sBeZCo8mYemhxO1NraqrZRI5w2UK+6E7W1Ka9pEQzxB07+V/EC9jPvzNYxvmO7Y9b9f6PMn+hvOHuORR6TI3Bs901/mlr1yQ3XRRtg37iHJ+MlvlkRP45XeZiYkFXlfB9SuicAIVjvAcpLTAwxTV7mR1bcNFxZOQu2IDcnERjyaoQ2uQdsuvkcdaZrDY5a3VvlO3KqaW8pf9BhCjJj0QBt1b/pDVX7GmbkNxy9Hg9mjljDeGjVg92lWvTK+8XwNqwfviUaD56YCJyl+q7JjLiG5HI/yy7oskhyJZzO3fgWM0q2ctOlmV1fQ+fY3YexbSKhkbvWrSxmJDI2Ty1prr5o0IcS1URaGIvZQVJZahF9iGUHonF1opMtVUVjFYloSkcc/Ri706L7HuUegIaF3zJURSvz9GW6tv+CkVEN6kosYaFQ1tI68bXrchA3IYuzrRHZK5txkTcwfWJ70lxljPildf3mLHx2MuQdTBAk4LGzJ1NZHYNS+ApeC6rTJo4IiBojmcCTXWruckThyxGmwel8DqaDCKiamq6+fiIhmlYnVoYO0tqGCl/mLpzmmMrMPWOW6koPZe4MiNpem7lxtCdXoqgMKMpa5MLX06oW4M1jEGth2bc0meWEdNPyaGfxfnNi14ChGVsOGC/1qZRl4gtPb175AIyt0SVWZ/kW60chYtRyYGIjMNylrdQwElisg5BylS+yOjJohfrceS1MvAVEuEtFU8lUkDIzgETSqXBPcdFiyD1Aa3YF+96Gu+Vlu0Tp6qjaZLYODlzWArgCPCWsCyC7NLEnwAMyFx4vADeXxt2i80AWz2+rmXtsN6+7V37wcXRJxZ+0BUS4rUULfStcoSkVrdzVinztAji+Fu+qOvE2V49GwAPSHhC9F1DQGF8AKnawXAA6sgEXgHF3DhIJGID4gHWHRd4wWR+cIWvcmmqmUopsBqC+t+EKHo27Zc2h6C5NpFVHcJdJuRvK3K6E0o2J1d405mvMJHd3z9hkiaguC7B0lwreI2tdyXDTBzKV9jy5tGWxMsUaLWr+cJMpWjqgF+gHOpTqrUbDTLFG7Vq2R5Dwla6ytApPYDVK0ZptjahAFpprEXbyPWP3GYPCDVoWpYpOW9KERIirM9iq6JJ7apqAWw5EtjVl96mQiC3CyX0K4KbDMbqPN7zdnn7G8wm1eZPSxKTVj3Uy/DkDOWlLabBfRunlXJFTc5ckM98X7Bffv0H3c/u9HPvj7WM7v335+vX1Wz2P/68f57GfXj/sk3/+Hw==);fillColor=none;" vertex="1" parent="1">
                    <mxGeometry x="-2426.3170628798634" y="391.5785894895855" width="227.0625" height="212.875" as="geometry"/>
                </mxCell>
                <mxCell id="7" value="" style="shape=stencil(fZXbcsIwDES/Jq87tuSL/Ezb/2AGKJlSYIDe/r7OpEmxAL0Zs8eRV2u748V5uzyuO3Lny+nwtv7qV5dtx08dUb/frk/9pY46fu54sTmc1q+nw8d+Nf4+LgflMHo/fA4rfI+cdw7ODRi5n3FqnngZgV2/vwJKQYhKT8nQB0irJyRjfRE4bvQJXgw9w5VGLyiGPkdIu76fV7gLpAxPLSAgfgzEDM7tjgM4PgZCQmm3wB5kAFy/EFpAEMJjgDKkbXL9pvjHgC/a1RjhDFs9Iae2bTTZcL8P2qRUTD0jtm2rjYyGRx6+tUgcxMjpzTGQCCZL75VekIz6PVxbT3EIRuxoSv2sJzijnht/Ck8V3g8dRK0f4IxEJATW+mycAtEBKtVPY/2CkrRejPpr4NQ9URLIMMgHRNJAshKUb7ac4YwW10yoq64C0fCoNqE4DViXV3UpKpfsg89RH7MKiFFS8FMqZ6DAGzkNdYuigWQ0OtbcZA0Uo6TE2qWrR+uPqIP/F27T73bjA3n9v34R69T4mvLzLw==);fillColor=none;" vertex="1" parent="1">
                    <mxGeometry x="-2353.5045628798634" y="439.0785894895855" width="60.25" height="192" as="geometry"/>
                </mxCell>
                <mxCell id="8" value="" style="shape=stencil(lZTdboMwDIWfJrdWYufP1133HpVKBxqDitJtffsGMTQcQaTeheQ7sX1MrOhwq0/XSqG+jUP/Wf0057FW9KYQm66uhmZMK0VHRYdLP1QfQ3/vzvP39TSR0+qr/55u+J11GrSeRKgf2cb7jLdNJ3AyL+AGgstwsvu4BaYMZ7+Pe/AyGQNYwA0BseARHO7zKfrf8cLbYrEYwUveL25t8hTAyXKNBu8K9qSCgxREsLQvcA6slxXHxYNtR1OFsgTiJeamICBY2QOHoGNBkDzJTCIIhZQCA1shCA6wECEieCmIrhghWvDyDXC50dEDy9+aI5hCH2IyUfaBeenMpoANWOmS0eWXllLGl3JaXbgq2wqf0uJ/blyatp3Hzvo8nzNpa55RdHwC);fillColor=none;" vertex="1" parent="1">
                    <mxGeometry x="-2322.7545628798634" y="473.5785894895855" width="108.75" height="89.16666666666666" as="geometry"/>
                </mxCell>
                <mxCell id="11" value="" style="edgeStyle=none;html=1;" edge="1" parent="1" source="9" target="10">
                    <mxGeometry relative="1" as="geometry"/>
                </mxCell>
                <mxCell id="9" value="" style="shape=stencil(fVVdc8IgEPw1ed0BjgPu2dr/4YyxZmrVUfv170uaifWo3huBXcIud0tHi/N2dey74M6X0+G1/xzWl21HT10Iw37bn4ZLHXW07GixOZz6l9Phfb+evo+rETmO3g4f4w5fE48jHI+s4L6nGQfnfieeJ/xu2N/iC8Y1hefwGJ8YRArvEQ18TvAaTyjlMb64ebsZz4jJwGdkvX8xzyMEEX3+gGwYJBniNaGALUKBz4pQJXA0CAwXtUWE5E3NjYboQWKa6pMmyDxz/9YcgnaVE5LxBxYELTpVDcY9x9KKTgI2/kAZRWvI0dQQZL6mKyGbtoYAKbqU3Nwcdwk+ty6VACaD4JF1c5aIZNRSBmtXS5p9vu8qfKOgSmbjQCiNgIJs3No1G654QTYsvWbPjBdn9o5vi0I8vNE61IZLxWfjAlJbpRIQDT99TaPmQAQyBHuGNCeKCIaCWnRRl0SNAzKKjhyKziNJIKMPomvTokZasHrZQ3Sn1UhzRlWkgPSPkA1ba+dycySxE69GbhPCzn7XbtYfU+rg7x3dDLvd9Azfrrfvbp2a3mxa/gA=);fillColor=none;direction=south;" vertex="1" parent="1">
                    <mxGeometry x="-2278.7233128798634" y="525.6098394895855" width="127" height="23.9375" as="geometry"/>
                </mxCell>
                <mxCell id="10" value="" style="whiteSpace=wrap;html=1;fillColor=none;" vertex="1" parent="1">
                    <mxGeometry x="-2275.22" y="671.52" width="120" height="1.48" as="geometry"/>
                </mxCell>
                <mxCell id="35" value="" style="shape=stencil(tZXJcsIwDIafJleNbVlezpS+BzOEJtOUMAG6vH2dSQl4iYBDb06sz7akX1KFq2OzOdSVEsfT0L/XX+321FT4UinV7pt6aE9hVeG6wtWuH+q3oT/vt9P3YTNajquP/nM84XviBAgxQkr8JD9eJ/Ou3XPmBIKWzQ0YG5lLB9Yv20sNykcAKvDMe2R2AzpQZhkIHjiMAO3AcQBlLnsQjA/Kg4yfZCxotQygBEURYBGkZAC6nDcDBOgYwAO59AbNAJrSKBkHxESJdOa0Ask4HbYpCSuy0rB54kIYGO3ZLA93pOFs+qQgPsWIz4cXx4kLufeM095etucbNKslKbKC00EbTOYKxJ3AFgijwdqnCEts2ygQLhQ2k70SMefnHwk+4yXP+VotRRdZGZYyOFfXwyoxQE/qSrGdvETIS+99UOzXrlIGsqYTlCs4IKs/I8FqBpDptLABYAo2bwmOwDDpdggY+3ATuD8iLK7TeNd23TTMb/fT6R1+TZMf178=);fillColor=#e51400;fontColor=#ffffff;strokeColor=#B20000;" vertex="1" parent="1">
                    <mxGeometry x="-3484.010477147006" y="646.4081593707094" width="3" height="16.5" as="geometry"/>
                </mxCell>
                <mxCell id="36" value="" style="shape=stencil(lZTdboMwDIWfhlsrieMkvu6696hUOtBYqSjdz9vPiKGRoFnjLiT+YmOfnAoP9+Z0qytn7uPQv9Yf7XlsKnyqnGuvTT20o6wqPFZ4uPRD/TL0j+t5/r6dpshp9da/Tzd8zpwBYybIma9i43kO79rrKpyAQhZuHRj6O95u7ncMXklgLXAOeASMCuCACiCBZQXwQCkDSABUAIKAGRAIOChAgBBzgJec/wUS8D4AwWlz2ABEYN0ewBPEXSWhiMUrQIRoc2lIozVpJIiUiy9AUqQhWk754ERdVinJ4TLXBWAIWjyDzf9Z1BiUMUhLvMsBfdDebZqUwFjlgVowPh+DFKmINZiyJLmClAyi5cil9pKSIZnSNCKr2ktcvlCWkjQPMBubWW39ILL4NcFL23Wzh67PS9OUrdlw8fgN);fillColor=#6d8764;fontColor=#ffffff;strokeColor=#3A5431;" vertex="1" parent="1">
                    <mxGeometry x="-3428.010477147006" y="648.4081593707094" width="6" height="20.75" as="geometry"/>
                </mxCell>
                <mxCell id="39" value="" style="shape=stencil(lVTbboMwDP2avFpJTOzkuev+o1LpQGOlouz29wuLuuF0CdqbMef4+BYr3F27w6VVVl/naXxu3/vj3Cl8UNb2566d+jlaCvcKd6dxap+m8fV8TN+Xw4JcrJfxbYnwkXgatF5IVn8mBzKw//Y8JvzQn1d4BO0l3oB3ZbxxQEEQYghHZYL1wJJgGJoKAR04mVLUrCk0DMYKggcfynjnbxXe8A00TRlPAUjGt2BtGc+ct+hnKH/ivc3zr+fjESzLBiEg/kdgQyFW4LOtqG8R3ym4+syIwMgZsAFjKgSdb4UnIK5MmYBREEK9hkhAmZLR9cHR3WMLG0U4CCSLqCvEvmqZE8XHU1GIu5Ht9sbkVjWWtjsav9fm1A9DOlbr//l1iq502XD/BQ==);fillColor=#fa6800;fontColor=#000000;strokeColor=#C73500;shadow=1;" vertex="1" parent="1">
                    <mxGeometry x="-3463.510477147006" y="703.3456593707094" width="32.5" height="2.8125" as="geometry"/>
                </mxCell>
                <mxCell id="40" value="" style="shape=stencil(fZTJbsJADIafJtdfHtuznWn7HkiEEpUSFOj29p0oosW0+OY4/uzx2snqtFsf+47pdJ7Gl/5j2Jx3nTx0zMNh10/DuUmdPHay2o5T/zyNb4fN8n1cz5az9Dq+zx4+F45ANENMX4si0I/qaQH2w+EKCFAxQK0gvm+fkJO1Z0h0/AdE+6ISkYMDKChaIKBWBygo2QC5RdD7AOvlxRcgFUi5DwhBbA6JkJIDRBRb1SgQJ2llBDWARlQnglao7YMUJKfPMUPYAoTiJJ0iyEZgQXUiZIbaHEJGckYjV7CtUuDLsPwLtMlRm0MBOZNRCdU2WqFOF2pCDMa+OXBK1FaF6429u2v0Zz1vgSb8rvZ22O+Xy3D9//YUNNVyRuTxGw==);fillColor=none;shadow=1;fontFamily=Times New Roman;" vertex="1" parent="1">
                    <mxGeometry x="-1769.4853822378104" y="589.4246537629512" width="123.52941176470588" height="20" as="geometry"/>
                </mxCell>
                <mxCell id="42" value="" style="shape=stencil(lVnZUhsxEPwav07pPp4J+Q+qMMEVgilDrr9PKy4t1mjdtt+M2bY0o56eHu3G370/P7xtN868fxz237e/d48fzxv/ZePc7vV5e9h94NPG32/83dP+sP122P98fTz+/fbQnmyffux/tV/4c8SFJK42lDN/j99YK8n9/+brEfCyez0FFDHlJkCVmG8BRCfO3ATwkvwESASQpEyAEs4DkpGogsYmCwEEyWoFL84SQBXrRkDoeVsFZC9ZZSlJICvkMqW1SCZBFydmjMHZnoZ1QJSSRgDSQLZUsIExrQ7sIkFXq7fkrXhCjeok2REQxBJqVN+JsACSxEoACDGOgCIxEkAUPwYdjBi2pSh5LKBgxbIsRaljloITT84BgDLGEFBShgLSeNIhiuGAMNIbwhMI+QCwKktZKktrkDoeXBMetqWFmx0QwS5+0mFMK5QqsRiCOAUAu/gKdjyHGHqVnwWMaY2x6/n1gMKoEbTcQzwdPwcTNCDxLWlAFnshrVkDEt9SVGktYj0ln0kakJnMRC33sUpgNQ32j1tCi/FEW2vW6p1s/4lzgKpWcL1NrgOKrunkOTVqV6EFEKSwGGovlwUQeU3X/nsLIIth51ClJg1gK1hjum4tiNLNwdWIKpkQfAWRzc0IGBQS+BrC97q6GgGBI2Kzhlh4fzUi89Y1HSBsS2SsnTiVa+9+Z2k+KmCBq+GlWsYYiqd5mmUfxoiaFDOtkMUT1pZFURdApWJQjE4rnBQr1eYux7QiKk8oi0oOYwzIWyLqga6g2i9OxpO0tsFDxYCgSQy+aqN1wsd1hNF60+hFyOScFlkEwdgHj656VxN2UhAYTMxI1+aMyAqoL5VWRxVwaqaNjeR5p0UfJr6SnOLX1POZGnC0wfGUUTyR6NikMKhOFu/8+5bGa8UpQarUJbouVycayYamoCeazOVoGgbQ4Tgf1JgIGxCZGElSfo97JRBUbQgmly2AQTiO4gWjzgwiBmE9zvCRzMa+gdNxhhUZTLOaHcylLYUxBg/FZit4bUG97xPROsB1w3kyGjPFBsCMhQ9qsaGv3ZGMAIvOybekLxCSGFY6QQ99lg/fNk/XLL63xvViM5oaWIEZROREtVqswHoz6sGo2ytH9aidq0qrlUq4BOYotrazJ1kCN1WrbUGTFdr0PwfNesI0zlhD72Wi0dTIfc5cfz5oE5a56MEajBuq9PYgOe0KEQBzqjD96hq00oBhlVV5xn79sG7ArG5Tvl8mnLt7U7cZjt5ooimphDru74JWC099ecuPfp5xtA2nVeWH2Zw4NYVCCREmU36hysJ08XHhQjYstuPKoolWz89tSwxQdR1z75hSHxo/c0o7v5MwSpfjnE7dyPXnTb+DO3ehXKt6nrlrGCH1vKMXpRirFScSHQXT5ESaeWakm7wXjAC70GusU1XJddEvMrUA+P2ct/21wgLIXfrW+1PR188AjK8B8OHz7c/T7uXl+PLo9P/6bRG+Or5p8vf/AA==);fillColor=none;shadow=1;fontFamily=Times New Roman;" vertex="1" parent="1">
                    <mxGeometry x="-1625.073617531928" y="382.14524199824524" width="186.1764705882353" height="199.33823529411765" as="geometry"/>
                </mxCell>
                <mxCell id="43" value="" style="shape=stencil(hVXLUiMxDPyauXbZki1bZx7/kSoCmSIkVAiw+/fr7DAh8hBxcyZquSV1ywPfvG1Wr+uBwtvxsH9ef44Px83AtwPRuNusD+OxnQa+G/jmcX9YPx3277uH6ffr6hR5Or3sP04Z/kw4FnA+oSj8nb6kBJL/X+4nwHbcXQISlAyAK2q+DqCCKgYQGaoOICAlC0Bx4mNBiZYRCjnxNF//nZ+dAiq4mPCAEK6HJ8TUhUu9Hh5Q2IRnlOSFf9195l6R3fTBjpdbM53xRgQ73UTIxRkWpKP/W3fE5s/i8imItl5hRKdehVo+oq6cl2IojaIHEEQr56Jzj38GKJIFVELw9E+9w2qaU/wMECSr0NpIOpQ4gDpAM6mjumZ6shariujU0HYC27ZqQHZuSIuiNSI7NaQy++QMaCnidUBuUrVW0ITs1JDLrPwzIEMdSkJIVnxawI4ZZKFubX1zaiix3xaqYGfXFQHZomPwDVrDvE8urvAM0cRZqa9anZVRKyT2fSUH0AYrXZsY7FBSmQd7IdfMjkfDYq8uTNoO34/o47jdTm/w5f/9o9s+TQ823/0D);fillColor=none;shadow=1;fontFamily=Times New Roman;" vertex="1" parent="1">
                    <mxGeometry x="-1637.9412645907516" y="603.3217125864804" width="151.10294117647058" height="21.764705882352942" as="geometry"/>
                </mxCell>
                <mxCell id="44" value="" style="shape=stencil(lZXdbsIwDIWfprdHcf6cXDP2HkiUUY1RVNjf2y9dySBZa4m7NPnsusc+TWNW5/3m1DZanS9D/9p+dtvLvjFPjdbdcd8O3SWtGrNuzGrXD+3L0L8ft9PzaTOS4+qt/xgzfE1x5BH9GKXV97QTwfy78Tzxh+54x2sFFx7hHbx9gDcGxBVvvcAzoql4FZZ5y1AlH6DNMu8SHwuec4GzvE/HpZ4O0S7zzNClnhZeL/PBw5b1GGghf7SIVPCEIOgZk9ylPgos5CeloFQVQCS8gOFDxV8TzPME0hXvhAYHBc8PfLAPcFwJ6gTeuazHrcFOaJhNA10KynCCoIbga0N6Qc9UbqUPUVZ4vmMO5MoACyNYgBR0OXIUYKUZzaeZTzPNUfBArajR0EJ+zoL/WSbNqNCyZOHSAk7BCgr5PMCZ9yr/ZOZHAlTWzwQjtDjJXTomJH2EenRt+WgQhPz/HHln0mtAWtxuhF13OEwXyv15fYOkren2Mesf);fillColor=none;shadow=1;fontFamily=Times New Roman;" vertex="1" parent="1">
                    <mxGeometry x="-1628.603029296634" y="564.7187714100099" width="130.0735294117647" height="138.52941176470588" as="geometry"/>
                </mxCell>
                <mxCell id="45" value="" style="shape=stencil(fZTdbsIwDIWfprdHsR3n55qx90CijGqMosL+3n6tuna4o7lLnPMl9nHkSjbX4+5SV+yut659rT+b/e1YyVPF3JyPddfc+lUl20o2h7arX7r2/bwf95fdoBxWb+3HcMPXyDk4N0DsvheB51F+as5GTnkh57AuJ5A3coLjdblAk5ELfFyXK8Te3gfyujwik5EniBRy75O32RBDtAAoKFqg/MLgtc2IA7hQ8FBgsAYpvC8YSlA1gFdoCYggm5J65MKH8AxlAwRBLvTYJzhra2SEgq0qiNbW5KCFPmtGtC6lgETrQNDpeAIyTUk+/kk0ZTwDfdGFxsUItkVnRSy8kBh+AcydeQwk5AWQJhseAnn+OTOQEQovkPs3K+5Cv0i/+Js0h+Z0GgfV/flyMvWhcarJ9gc=);fillColor=none;shadow=1;fontFamily=Times New Roman;" vertex="1" parent="1">
                    <mxGeometry x="-1481.2500881201634" y="558.2481831747158" width="103.23529411764706" height="150" as="geometry"/>
                </mxCell>
                <mxCell id="46" value="" style="shape=stencil(lZbbbtswDIafxrc/JFGUqOuue48CTRdjWVKk2entR8OwO6oNE9/5wE+kRPIXB3p42z+97oYU3i7n0/fd7/H5sh/oy5DSeNzvzuNFnwZ6HOjh5XTefTuffh6f5/fXp8lyevpx+jWt8GfmAkKYoBT+dh++zuaH8WjMMxvziETXzROCNRdEvm6el7/r6gXZiYbB1l7DIce+olVr31Cc8GOAkAFIIM0BMkIxQBaU6AAV2XrgCqnOiQaUZoBSkJw966GSBaoG6XnQAOweJIDLdYC0BjqAUZw0U0a2IUkDeUAFiwFaQnQSl7VOO0B9ZgcgpGwBXnL/OVAQbOJaxfR6FZC+dZrfDBxQcw94tcRpqc0VaG6mOaNxD7BzSlzQrFrE4OsFa7+kTUTRbW/zUVIvAzeJvMjK3URZkns3Ib2y3iQaqmwiagTTNkLrfNtZqVq0jT7K0v13EwLedlYqSRv3IaoYVvxvFLuoTEoPeO0kqxDf2eEiSF3D+hrSAihaoLgX3iSTVppV1sjZQ6MPokNo4gC6nm2MG9KsEZfOwyp0nwMVtRsi/NviXSZXQA/a27SuZ0tcUxm9Wzt8GJv0yotmMNCH95nrZTwc5pHt///9jKaf5vmOHv8B);fillColor=none;shadow=1;fontFamily=Times New Roman;" vertex="1" parent="1">
                    <mxGeometry x="-1630.6618528260458" y="702.9540655276569" width="218.52941176470588" height="15.882352941176471" as="geometry"/>
                </mxCell>
                <mxCell id="47" value="" style="shape=stencil(fVbLctswDPwaXTEkAL7OafofmYlTa+raGcd9/X2hqlINSt6bLGNJYbG75CBPH8eX98PA4eN2vXw9/Bxfb8dBPg3M4/l4uI43exrkeZCnt8v18OV6+X5+nX+/v0yV09O3y49phV8zTpUaTygOv+c3MVMpf998ngGn8XwPSJRbD2AEKKTRA5QqPwakQLV4QCRtAMBUswM0ymiDRFVcfaYWQH2lmly9UgTr50jFr2/fr6Bee4YCBfA9OW9mtsxkv75Syd33pwzqW99vDLDhEiipBxQSAYBI0e/AiQS0bIDiWxahBFRXmNQDlCGpRUh8D9ogS8VIrA6QsCzK6pMVUBca9gF1kf2q0wCtVo3W0gMa6KEqhboBAJZqIdYeoADQAmWv7dSgmZv20jCWAtBSM6l1c8iUAa3N0sHbM1lEAZZiWP143wRA2BbJd22ZUEEEWBPcARIFIKYmxN7T5toAurbJBT85EzC0nK3nxVRXmz9KgeAnN+0ZYU4mT2uLJCi419xaAbossX/2NIpeG0Y0BGw82nAK2HHI3XEYcHrbFhL6byqga62UUt/1P8nv0xT7OLZBKNDGFFy+CYueCCZnJ2jpgqYsTD/agTtXJ1Lgars1dD1MTCOWNuqTDFkSXjhZzyALBqBvlsXz66gbCbIcNS++WBeX79ZvUoa5u4rZw/+L3Nt4Os33wPv/+4ufvZovjfL8Bw==);fillColor=none;shadow=1;fontFamily=Times New Roman;" vertex="1" parent="1">
                    <mxGeometry x="-1554.889458397733" y="624.7590468375892" width="255.36764705882354" height="235.44117647058823" as="geometry"/>
                </mxCell>
                <mxCell id="48" value="" style="shape=stencil(jVjLUhwxDPyavapsy88zIf9BFUvYCgEKyOvv05MtT0aapcltmKHXVrvVknzQq9f7m+fjIYXXt5enr8efp9u3+4N+OqR0erw/vpze8HTQ64Ne3T29HL+8PH1/vD3//Xyz/Ofy9O3px/ILv864GkTLgkrh9/lNq1LC3zefz4CH06MFjGoBTbISQJSmFjAkdAJIkoMB9DB/4j1A6xaANSMBqGQbQ1cedJaYLaBIZjHk3ZbA0iCAImpZ6kNyoYAeDWBEyZkAqqRmAcpXqFLtOYwiia/QHQBvEgUMK77RP1pBkwWMjw4uNA8YXK3FnnQMQQJZojRpuyWU8FpAe/JRK9FG7tKtXEeTRFbIkKvjtdCodey0kSU3AoC+LU0DSUi2pODVJgTkWkjQqUtxLIXJ22UAfMvGgAyqJEdTkWBZ6l0GA6jU6AFMrinNz1sXYIAwN7ACEBWhFYCwM6ZKTjripJ3PZKmE1tjnBrZeyQBNxrAA0EBoBaA4QJBOWAJAXQkaEisH2INDzUo8huxqFsRC1AqAy4fG8wG0Rht0QyUmNgOAM9eKNdmW4Iw2hqXGkKoILalNIBRW5hopelrRHDSWoknUslQ6LdTIuGxXKCgZbIXsWSplEn0Z0Ka5rwCd7cdlwGoqKyBOe77sfGnWwBUQZsW4DKg7loJEAshhthb/C4B7Vw9gdp/HVP8GMEiKgsQQPUuNAaoExxJ4Y1W0z+Zlc3CDxFDX/FoBmdoMWoHqgkYC8cbV9dIAZCKNfeNa1jbwvcY1VA9gzgdArLugWR+qkqIHsPpQ12PaAJj4QKurDzg4GnTYZVyiA0SBWq3zQa2VbGkxFctS5iMKQnQjSm40aKjf1WnkYGEZV33PlyFHctL43G3Qim6GeOtiM/Yc8Ib6UvA1TjEPkC3tzViRorzGNQdIVBpxLbIrINCZpkm1IaDNZKOlemdFl8lcKXrbAwdKOA2++iTuq/B1e8hxHdLe2U+y+wdjgcdrXbhJZ7nsNcejjTtziVSi+OxmXF6mNPqk4aNbTlJ2v89qzm6aXL3svXHVyTPPgC6rE22spT9GaisYiTyhfb65DGheEKnyPjXsJAqbYA0ShtnurO4DQPbuCz9mdr2MaTaI5SKBAeIcQDaXXI1sqem83dkMPbRGVd9cLNc3/ILIdVQYoJm/A7Af0Zm4MR64S66htHducXY3mxUYS6A1Br8CcxeE6Oyr+/4fD/+uKu9ODw/nm87td3+1iVfna1G9/gM=);fillColor=none;shadow=1;fontFamily=Times New Roman;" vertex="1" parent="1">
                    <mxGeometry x="-1774.962987809498" y="-1135.976247280058" width="290.5882352941177" height="296.3235294117647" as="geometry"/>
                </mxCell>
                <mxCell id="49" value="" style="shape=stencil(fZLdDoMgDIWfhtsGWxC4du49TMRJ5tSo+3v7SVgyccG7Qzlf27RlVMxtNVqGfF6m4Wqfrl5aRieG6PrWTm5ZFaOSUdEMk71Mw72vw3usvNOr2/DwGV6B48C5h5C/d4FzsHeu39gV5CayS9AybScEyiI/Iog8DQgNJCOAcpAmDUgBOq4gCPRBhVztW5IKOKYBLcHEI1IE2cGMjACkCPApDlrK+N8WNqEvsorfDhvXdeEEtv/7na+hcC9UfgA=);fillColor=none;shadow=1;fontFamily=Times New Roman;" vertex="1" parent="1">
                    <mxGeometry x="-1477.2423995742038" y="470.71492919053026" width="7.647058823529412" height="16.764705882352942" as="geometry"/>
                </mxCell>
                <mxCell id="50" value="" style="shape=stencil(fVXLcsIwDPyaXHdsyw/pTOl/MEMomVJggL7+vs5kQlFCdHNsrSztrpWGVtf95tw2wV1vl9N7+91tb/uGXpoQuuO+vXS3umpo3dBqd7q0b5fT53E7fJ83fWS/+jh99Rl+Bpx3Ds71sOB+h637xusAOHTHB4BEhKziAxIvx3NGf/YQnyFGfGFIUvHegZMBiGDWgGDekMu0Il9LysuAJHCiW/ZjiueAeqw5DQkky4BIKLqHICCjJMrj8QggQqJlQM3ndQ9UUIySqqyFFCB6sFGSn9EaE9goqcoUowYI2BtWAhUVn+60PZdh6tRUTCcFsM6fa8eGzDOVczIpdQi63ywmo7OXWQhiEDrLXwrE4NONrh/j2SNbloDXL5Mrw8UwKZK2HN8VXNDLaQOJh7ceMormRwjZGF0z/0hCjoa+VQDdsBQkw0DeI+pnLAy2bqiTajKK3HT81sX/8N51h8Mw+x/Pp8O+bg0/Clr/AQ==);fillColor=none;shadow=1;fontFamily=Times New Roman;" vertex="1" parent="1">
                    <mxGeometry x="-1735.0365172212628" y="452.4796350728832" width="30.735294117647058" height="75.88235294117648" as="geometry"/>
                </mxCell>
                <mxCell id="52" value="" style="shape=stencil(lVTbbsIwDP2avlpJnJufGfsPJMqoxlpUYJe/n7vAhkNraW+Jc07s41uDq9N+c2wbZ07ncXhtP7rted/gU+Nc1+/bsTvzqcF1g6vdMLYv43Dpt+V+3EzI6fQ2vE8/fBaeAWMmkjNfxeAcRPyxPBf8oesF3qf/4C2Eh/8xLOMRcvW/BaPgI7gg8JYgOCUeA5QlIUJSHPCzdZLAMSoeWKAnSTAQvCLZAEoPCUxW8BmiFXgESst4n8B6GRAERXEIQFHgf5tkvgScD1/htRIkAy5V8WstlCJEmVCCqOjNDmxV4gxoFUIElA5cvkmaJ1Ct2PNcKB6Ih0QSAo+Bopk8kOwJzjIpRaBYN0XyN8s8IdVVzuxBEU2cE5RlMLfhnifwJFaEqDYeE5JsDPZ5DXJhmB/W153pSuHD3/LbdYdD2Z337/WyZFNZtLj+Bg==);fillColor=none;shadow=1;fontFamily=Times New Roman;" vertex="1" parent="1">
                    <mxGeometry x="-1852.5365172212626" y="403.4355174258244" width="125.88235294117648" height="42.57352941176471" as="geometry"/>
                </mxCell>
                <mxCell id="53" value="" style="shape=stencil(lVjLbhsxDPwaXwmJep/T9D8CxGmMpnHgpK+/72wNbVfc3TF6c2KOJYrkzEiHcPf+/PB2PKh7/7icvx5/nh4/ng/h00H19Pp8vJw+8OkQ7g/h7ul8OX65nL+/Pl7/fnuYIqdP384/pl/4dcWlJqVOKHW/r/9x4tzff3y+xr+cXhfx2UktQ7yXlEm8t/FBfCDxKs0P8VFaIfFBkhvis3i2nyi5DfFVciLxSep4Pt5LrARQxOURECV4Aqjixh35wkvQxIUR0HpSe4A6rqAqSnIoTuKYA6qgpGoAmKpp6mtuA7z4NAJyb5Q9gMYRUCSQQm8CCjnWaUvNAtqNHEzSVeKNU2oW0JQC6lhpRSlZDk7S2K3B0fEBIIynFNAaLGlnuzUEyay9sWOzAiaaMQCa2QCyKJ+HaABFlHFG61/PgCqBrVCl6gjADHISSM0CKqOlJGWch+gksy3NNDoDvAR2rCjcmEPUzlSbgJSleAsopDUSqNisEChVJnSrySHSLcXaG2EBiAxQVmoSKWvE1gdyuSUyoki6Jpt0ZgCMfLYARsZQrFIswMf/IWMAWGsUjMvqlJiIVvyeSTpJJjnUagUFpfTklJrabk2+j9Q2INrmS6nzyDYgSzTGwdFjbaV3/wyI3TttA6otHIgnEF5q+HpcofBeaituRSkzqbR3s7ub7Y/vCrC3RB5ntEbK98haRwmqODi2QpI2NlMDL7BjUmvJWuDt2vrMz4BEaaMmWwgUP5Gkq+uSNgMgEEx3k1UUABpXdjUu0d1w6rGf4mIJ5cxkumlqeeKNk3ZDtThXJloxW0+GyjHCD826dfQGozKYkTRSWS2UN+DA3HhKKL4nSeP+YngDbMjqAHNexu7DyDGLNdn/sTdKoybOJ2viAFAycriRmDqUSn2lR9JqAZEMhFdLxwAwHZ1uVQZQujvYoTLrvkumVw6wsdp4xhpldUY4ZuZmpJr9YABJI+Fb8/uh68V2a3cvtYhnHlS7dMzxKpHsx1tfgvtNZl3X7zpzvOuTsRNvuhquOpEmdZZccqaD6XpDzvGBWj3Xq7/Qf+ZWV8qZSufLnXhD2OBXx4ZydT6ua8ROfd0omyD8yqjRzst00SIjHK0pRP+z/af+DjTTnOOKZuWpZrofDLwxnc3zhoavNrKv9I3BZ3u9uLXC6iVmshpMPFbPHkiaXVVV7fNZVcrUa3m6wdTYkuUtzkO+9pvsYvCZxEKe8soHNzKZEA/jpqanFqYFvjvMBdcxLQDAkm+iatNsK0FhHWvWYBeYrkBsmrW/QCyt0bACPvx7xX06vbxcH4GX39tXX/zr+mIc7v8A);fillColor=none;shadow=1;fontFamily=Times New Roman;" vertex="1" parent="1">
                    <mxGeometry x="-1842.9041642800862" y="423.6561056611185" width="179.7058823529412" height="150.51470588235296" as="geometry"/>
                </mxCell>
                <mxCell id="54" value="" style="shape=stencil(fZTLcoMwDEW/xts7tvyQvU7T/8hMSGFKIUPo6+9r6mmLSPFOCB0kXUkoe7i1p2ujSN/maXxu3rvz3Cr7oIi6oW2mbs6WskdlD5dxap6m8XU4l+fraYlcrJfxbfnCR+HIw/uFIv1ZPEZraP3teixE3w0rwhkYEkRiUNwHfATJFCmA7T4QCcRbwFdKigl6k8Ej0T6QIryTgINN+8BKlF/CILpKCoeYBBAZHCpNOATZddYh+H0gRAQjAGboSkkuyy4nx7oq0/1yBAeqyBShrYj34WdZ/o2/EzWXmCodGLgg4m1d0wQnZ5A9vjbmBJaS5pTMFUkdvOzYaFBlVTnvtmxhe23Z+DvWS9f35dbX77fHnV3lx2CPXw==);fillColor=none;shadow=1;fontFamily=Times New Roman;" vertex="1" parent="1">
                    <mxGeometry x="-1696.8747525153804" y="495.12669389641263" width="10.073529411764707" height="14.411764705882353" as="geometry"/>
                </mxCell>
                <mxCell id="55" value="" style="shape=stencil(fZJLjoMwEERP423J7sYf1vncAykkWCEQEZLM3H5AHiUYZO/a7XpdbqsE7x5Nda8Fycc49Nf67U9jI3gviHzX1IMfp0rwQfDu3A/1Zeif3Smc79WsnKtb/5on/AROSQkpZ4zkb2h9GscAtL5bAKWBsZGeQUVa79x6vpJQGQNLcCYCSIFNGjB67UAWBacBzbA6XsGCXRooFCgGCgedWZo3n6pLlDoN0AawEiazgwNzpHcETRkD6Hh+SbAZ/eY9i6D8A1PxTdXZt20I5fJ+ncKpFRLMhz8=);fillColor=none;shadow=1;fontFamily=Times New Roman;" vertex="1" parent="1">
                    <mxGeometry x="-1753.1247525153804" y="464.8325762493538" width="5.882352941176471" height="30.294117647058826" as="geometry"/>
                </mxCell>
                <mxCell id="56" value="" style="shape=stencil(lVjLchsxDPsaXzmSqOc5Tf8jM3EaT90446Svvy9cj7YWtYabm7MRVhQJgtBu9O7t+eF1uwnu7f14+Lr9uXt8f97op00Iu5fn7XH3jl8bvd/o3dPhuP1yPHx/eTz//fpwWnn69e3w4/SGX2ecDxLyCRXc7/OTgifu75PPZ8B+9zICYvogoE6AnAlA+/sWAJ4oBWi1gNQooJodouRAAFFCHAGpn+oaIOsIKBI8BbQwAqoklqUk3uzQpHGASWv1ojd28CMg9FNdO4NJa1UplQJ8GwFRlKV1qjQAOVLyzYDK2OptpW8AkPRpg0KyWiXPJyA5KhL1I+uzhPSReFBkE08SR4gaJxYlSSQ/qFgZ12fxpNXClJ8sjb4/jvoFzkVCIRDMkNpJIFqB/JjOL5TTSdpIaShFJvFkqUZ/lfINuxvpClJIU1aJ3q5vJP7Wq/+f0lht/Mgnq1eTNNeXaYSXPAbU0NNMq8HfkXEtd21dZ5wTP6a0NSmEEqceG8/gnRPHSBps1RrUncSkzbZBA3FJmWOehA6VIYCELBrtRZCEqKnYTi65J26d2d5KS669OdYBKnncIQdJRIsyRtoIQJCBNVvuI3IBeMpuRKxj4eLSsOuAZvUohn6q9X52kscdFC3LBoK31NDY91wHTJKqTgo59Mk9jTMEqqOkcJAIQz7IrCeFK5O1CP4WoJiWq9QTgptG96ALNK2gxsgleAcmZJgD0aqARFbpIs0Y4b7l+vravdBC1u7Vr623AUljKUIRxvc72jxgqqkBF70cuwlfikx5it71Nj/MucTWt1/OC6tGEhqdvesE7hXQJ8bcqXY7sD4ZpmEVY59G14ZVGu1FUmrvwDEj29BIx0S1T4ELEeb+zt6lfH9yxa8lcw3RLvvrB5j8VKQsclM8kZ7XWVIgHsYi1/X/4ryMRGrjz4V3mWXEjZmGK45JaMqcc66P7YVzmEEko7BgxgJjRDGDBDNiJr+CVSQkDNUw7qBcGjH5zS0HPGS3X5DAqDXSwFoZLjOPve8bv8y6iUne3vnx4993lafdfn/+LHP5f/sdBo/O33D0/g8=);fillColor=none;shadow=1;fontFamily=Times New Roman;" vertex="1" parent="1">
                    <mxGeometry x="-1659.1541642800862" y="580.8619880140601" width="624.8529411764706" height="179.04411764705884" as="geometry"/>
                </mxCell>
                <mxCell id="57" value="" style="shape=stencil(fVTLcoMwDPwarju2/JLPafofmQkpTGnIEPr6+5phoBUNuhmxK6+ktSp3uDenW12RuY9D/1p/tuexqdxTRdRem3pox3Kq3LFyh0s/1C9D/349z9+304ScTm/9x5Tha+YZGDORyHzPAWvW0PNM6NqrIHgrCDkjhX28RQ4Sn5BpH+/hnMR7eN7HB6Qo8QTK+3gGeYFnVvNbC5KC2CF5heARWRASwySFUATIEpJFVFpKtCheCNGDlRsoIsqiQwLbfYIz4A3BqEW7AJaSPCErBG8RpI9KCusUQtoaj4qRlKKDQ5bWLl5kRVI0yHLSNiJoBF4Ur4TidsV7KYDkYygZFO8xwciaS4+UsXHpUZZNRVB6mu12arQEHuPD1qlFoNKgzIsH1gbBRQWfwVL/OpLHL8f8W1/b5VUOv6vv0nbdvDn//t+uyhKa16w7/gA=);fillColor=none;shadow=1;fontFamily=Times New Roman;" vertex="1" parent="1">
                    <mxGeometry x="-383.1247525153801" y="411.0090468375891" width="525.8823529411765" height="79.11764705882354" as="geometry"/>
                </mxCell>
                <mxCell id="59" value="" style="shape=stencil(lVbLbhsxDPyavRKSKInkOU3/I0Cc2qhrB47Tx9+Xi4W2keydIjctNSPxOauJH972T6+7KYW36+X8fffr8HzdT/xlSulw2u8uh6uvJn6c+OHlfNl9u5zfT8/L9+vTjJxXP84/5xN+L7xAIcykFP4Mhq8L/Hg4dfCYPwWv6RPwSFUHOMdteKLMA1zTNpxJemcicd2GF+L+9ERRtuFCyQa42TbcqPShZgoKMuOXlw5fWvD38Zms916IM8ALWd8H7iBKfaQwJDOSgWx6fKnvnNnFAghCRXqCUgIucWjnrRVIFBAhE/c3pAo7goWkL9p8J6hajpT6LHGhCgYgZ6p9lnJoR9wn6Di/foSCQhd3qQ86G2U0BplyH3RhUhBDkRbiShBSkKUaqPSjUyNlULjKzeOV4HkDs1krxT6G6k6CoKuS9FkSlyIQg8TWmyshUQHtLUxlGNAM6yCFZLgBd6tIK9NK8AFCBGvy2Qjqcg8IGsd5UJ84UAflUeDdYohQqAwu4QFSGdvbLQURdBRK9XkABAtNGFeldC0EUuzbww2WiNGvgccY3CKgl8w7p1cNwyJgpeVkJRQyIDNWm8crQaC2+naUkaAoSzI2n2mT5/sEvXHJS4lc0qZCKwErn28P6u0WQTHc/NRjwA8euxm5/zE+7G9TfPHvvfdyOB6X5+LH/fF96KblbcmPfwE=);fillColor=none;shadow=1;fontFamily=Times New Roman;" vertex="1" parent="1">
                    <mxGeometry x="-4520.907451162944" y="-624.2160836129937" width="415.29411764705884" height="27.058823529411764" as="geometry"/>
                </mxCell>
                <mxCell id="60" value="" style="shape=stencil(lVTLboNADPyavVq79j7PafofkUIKKoWIkD7+vkaENibFUm/GO2ON7cGGdpf6cK4M2ss49K/VR3Mca0NPBrHp6mpoRo4M7Q3tTv1QvQz9tTvO3+fDhJyit/59qvA58yxYO5HQfq0SzzO8bToJD/+CJ7+CBwXuIJOAO/C0DUfIScARfNyG+6XYAvdgleoJbBTwCCko2h2gVMMZVxRChOIkIYFTpsN6b/V++vWQ/TaBEEIWBCJIiiSPEFGOyAMpTQcmSEmBJbltQiSwsukYgFDZAvcgHZc8FEVSfvBcJtWjOUFYEcqS+ZNQEEhuurCTNAJbSU6pZHBK06WsN82ZqHnJPvzHd6kbhYPfK3Bq2nY+Ivfv66vBqfni0P4b);fillColor=none;shadow=1;fontFamily=Times New Roman;" vertex="1" parent="1">
                    <mxGeometry x="-4528.554509986474" y="-627.7454953776995" width="363.5294117647059" height="140.58823529411765" as="geometry"/>
                </mxCell>
                <mxCell id="61" value="" style="shape=stencil(fZPdbsMgDIWfhlsLY/583XXvUanpEi1LqjTb2rcfUcZWJ4I7Y84HxuYoOtza07VRRt/maXxvvrvz3Cp6UcZ0Q9tM3ZwiRUdFh8s4NW/T+Dmc1/X1tCiX6GP8Wk64r5wGrRfI6Mcm8brK+24QctzJuSxHMFbIEQjLcgschdyBp7I8gDVCHsGZSjEITLIaghAqQASSF6T6MZYB4/N2Big1zJcBcoAsAKvrHdq3CEHbMuDcdmIeIVS65C0YJ4CgIVaAQLnrfwBXxxYRnCwpeoiuAoR8XgY4jbIyOLaA8t+xB67cwBFQPpoZdO0v6Z1xnlK/SAr+bXfp+n517fP+1qYptVqcjj8=);fillColor=none;shadow=1;fontFamily=Times New Roman;" vertex="1" parent="1">
                    <mxGeometry x="-4525.025098221768" y="-351.2749071424054" width="199.11764705882354" height="225.29411764705884" as="geometry"/>
                </mxCell>
                <mxCell id="62" value="" style="shape=stencil(fZBLDoMwDERP461l7FAOQOk9kAglapqgQH+3L1EqNVDR3XjyxnIGpJ6GdtTANM3BX/TDdPMAcgRm4wYdzLwokAak7n3Q5+Bvrkvz2EYyqqu/xw3PlCMkiiGm18Y4Jdwal+GFoKz5AlW5zyuFpFa8MBbVfqASZFkFSsED/7mIfr6QWZ/IIr4F9Mba1F/+vi1ssVLZ0rwB);fillColor=none;shadow=1;fontFamily=Times New Roman;" vertex="1" parent="1">
                    <mxGeometry x="-4162.672157045297" y="-547.1572600835818" width="110.58823529411765" height="13.529411764705882" as="geometry"/>
                </mxCell>
            </root>
        </mxGraphModel>
    </diagram>
</mxfile>